<mxfile host="app.diagrams.net" agent="Mozilla/5.0 (Windows NT 10.0; Win64; x64) AppleWebKit/537.36 (KHTML, like Gecko) Chrome/130.0.0.0 YaBrowser/24.12.0.0 Safari/537.36" version="26.0.8">
  <diagram name="Страница — 1" id="ZEHXpLVFooIk0IqkebwK">
    <mxGraphModel dx="1221" dy="658" grid="1" gridSize="10" guides="1" tooltips="1" connect="1" arrows="1" fold="1" page="1" pageScale="1" pageWidth="827" pageHeight="1169" math="0" shadow="0">
      <root>
        <mxCell id="0" />
        <mxCell id="1" parent="0" />
        <mxCell id="KTaPcx_mwvQzee3IW0S4-13" value="E&lt;sub&gt;0&lt;/sub&gt;&lt;span style=&quot;font-size: 10px;&quot;&gt;&amp;nbsp;(0/0 ; 0/0)&lt;/span&gt;" style="ellipse;whiteSpace=wrap;html=1;aspect=fixed;" vertex="1" parent="1">
          <mxGeometry x="280" y="120" width="80" height="80" as="geometry" />
        </mxCell>
        <mxCell id="KTaPcx_mwvQzee3IW0S4-14" value="E&lt;sub&gt;2&lt;/sub&gt;&lt;span style=&quot;font-size: 10px;&quot;&gt;&amp;nbsp;(0/0 ; 1/0)&lt;/span&gt;" style="ellipse;whiteSpace=wrap;html=1;aspect=fixed;" vertex="1" parent="1">
          <mxGeometry x="400" y="200" width="80" height="80" as="geometry" />
        </mxCell>
        <mxCell id="KTaPcx_mwvQzee3IW0S4-18" value="" style="endArrow=classic;startArrow=classic;html=1;rounded=0;entryX=0;entryY=0.5;entryDx=0;entryDy=0;exitX=0.5;exitY=0;exitDx=0;exitDy=0;" edge="1" parent="1" source="KTaPcx_mwvQzee3IW0S4-15" target="KTaPcx_mwvQzee3IW0S4-13">
          <mxGeometry width="50" height="50" relative="1" as="geometry">
            <mxPoint x="180" y="240" as="sourcePoint" />
            <mxPoint x="230" y="190" as="targetPoint" />
          </mxGeometry>
        </mxCell>
        <mxCell id="KTaPcx_mwvQzee3IW0S4-19" value="" style="endArrow=classic;startArrow=classic;html=1;rounded=0;entryX=1;entryY=0.5;entryDx=0;entryDy=0;exitX=0.5;exitY=0;exitDx=0;exitDy=0;" edge="1" parent="1" source="KTaPcx_mwvQzee3IW0S4-14" target="KTaPcx_mwvQzee3IW0S4-13">
          <mxGeometry width="50" height="50" relative="1" as="geometry">
            <mxPoint x="190" y="250" as="sourcePoint" />
            <mxPoint x="290" y="170" as="targetPoint" />
          </mxGeometry>
        </mxCell>
        <mxCell id="KTaPcx_mwvQzee3IW0S4-20" value="E&lt;sub&gt;4&lt;/sub&gt;&lt;span style=&quot;font-size: 10px;&quot;&gt;&amp;nbsp;(1/0 ; 1/0)&lt;/span&gt;" style="ellipse;whiteSpace=wrap;html=1;aspect=fixed;" vertex="1" parent="1">
          <mxGeometry x="280" y="280" width="80" height="80" as="geometry" />
        </mxCell>
        <mxCell id="KTaPcx_mwvQzee3IW0S4-21" value="" style="endArrow=classic;startArrow=classic;html=1;rounded=0;entryX=0;entryY=0.5;entryDx=0;entryDy=0;" edge="1" parent="1" target="KTaPcx_mwvQzee3IW0S4-15">
          <mxGeometry width="50" height="50" relative="1" as="geometry">
            <mxPoint x="180" y="240" as="sourcePoint" />
            <mxPoint x="280" y="160" as="targetPoint" />
          </mxGeometry>
        </mxCell>
        <mxCell id="KTaPcx_mwvQzee3IW0S4-15" value="E&lt;sub&gt;1&lt;/sub&gt;&lt;span style=&quot;font-size: 10px;&quot;&gt;&amp;nbsp;(1/0 ; 0/0)&lt;/span&gt;" style="ellipse;whiteSpace=wrap;html=1;aspect=fixed;" vertex="1" parent="1">
          <mxGeometry x="160" y="200" width="80" height="80" as="geometry" />
        </mxCell>
        <mxCell id="KTaPcx_mwvQzee3IW0S4-22" value="" style="endArrow=classic;startArrow=classic;html=1;rounded=0;entryX=0;entryY=0.5;entryDx=0;entryDy=0;exitX=0.5;exitY=0;exitDx=0;exitDy=0;" edge="1" parent="1" source="KTaPcx_mwvQzee3IW0S4-20" target="KTaPcx_mwvQzee3IW0S4-14">
          <mxGeometry width="50" height="50" relative="1" as="geometry">
            <mxPoint x="320" y="320" as="sourcePoint" />
            <mxPoint x="370" y="270" as="targetPoint" />
          </mxGeometry>
        </mxCell>
        <mxCell id="KTaPcx_mwvQzee3IW0S4-23" value="" style="endArrow=classic;startArrow=classic;html=1;rounded=0;entryX=1;entryY=0.5;entryDx=0;entryDy=0;exitX=0.5;exitY=0;exitDx=0;exitDy=0;" edge="1" parent="1" source="KTaPcx_mwvQzee3IW0S4-20" target="KTaPcx_mwvQzee3IW0S4-15">
          <mxGeometry width="50" height="50" relative="1" as="geometry">
            <mxPoint x="370" y="330" as="sourcePoint" />
            <mxPoint x="450" y="290" as="targetPoint" />
          </mxGeometry>
        </mxCell>
        <mxCell id="KTaPcx_mwvQzee3IW0S4-24" value="E&lt;sub&gt;3&lt;/sub&gt;&lt;span style=&quot;font-size: 10px;&quot;&gt;&amp;nbsp;(1/1 ; 0/0)&lt;/span&gt;" style="ellipse;whiteSpace=wrap;html=1;aspect=fixed;" vertex="1" parent="1">
          <mxGeometry x="40" y="280" width="80" height="80" as="geometry" />
        </mxCell>
        <mxCell id="KTaPcx_mwvQzee3IW0S4-25" value="" style="endArrow=classic;startArrow=classic;html=1;rounded=0;entryX=0;entryY=0.5;entryDx=0;entryDy=0;exitX=0.5;exitY=0;exitDx=0;exitDy=0;" edge="1" parent="1" source="KTaPcx_mwvQzee3IW0S4-24" target="KTaPcx_mwvQzee3IW0S4-15">
          <mxGeometry width="50" height="50" relative="1" as="geometry">
            <mxPoint x="320" y="320" as="sourcePoint" />
            <mxPoint x="370" y="270" as="targetPoint" />
          </mxGeometry>
        </mxCell>
        <mxCell id="KTaPcx_mwvQzee3IW0S4-26" value="E&lt;sub&gt;5&lt;/sub&gt;&lt;span style=&quot;font-size: 10px;&quot;&gt;&amp;nbsp;(0/0 ; 1/1)&lt;/span&gt;" style="ellipse;whiteSpace=wrap;html=1;aspect=fixed;" vertex="1" parent="1">
          <mxGeometry x="520" y="280" width="80" height="80" as="geometry" />
        </mxCell>
        <mxCell id="KTaPcx_mwvQzee3IW0S4-27" value="" style="endArrow=classic;startArrow=classic;html=1;rounded=0;exitX=0.5;exitY=0;exitDx=0;exitDy=0;entryX=1;entryY=0.5;entryDx=0;entryDy=0;" edge="1" parent="1" source="KTaPcx_mwvQzee3IW0S4-26" target="KTaPcx_mwvQzee3IW0S4-14">
          <mxGeometry width="50" height="50" relative="1" as="geometry">
            <mxPoint x="320" y="320" as="sourcePoint" />
            <mxPoint x="440" y="280" as="targetPoint" />
          </mxGeometry>
        </mxCell>
        <mxCell id="KTaPcx_mwvQzee3IW0S4-28" value="E&lt;sub&gt;6&lt;/sub&gt;&lt;span style=&quot;font-size: 10px;&quot;&gt;&amp;nbsp;(1/2 ; 0/0)&lt;/span&gt;" style="ellipse;whiteSpace=wrap;html=1;aspect=fixed;" vertex="1" parent="1">
          <mxGeometry x="40" y="400" width="80" height="80" as="geometry" />
        </mxCell>
        <mxCell id="KTaPcx_mwvQzee3IW0S4-29" value="E&lt;sub&gt;7&lt;/sub&gt;&lt;span style=&quot;font-size: 10px;&quot;&gt;&amp;nbsp;(1/1 ; 1/0)&lt;/span&gt;" style="ellipse;whiteSpace=wrap;html=1;aspect=fixed;" vertex="1" parent="1">
          <mxGeometry x="280" y="400" width="80" height="80" as="geometry" />
        </mxCell>
        <mxCell id="KTaPcx_mwvQzee3IW0S4-30" value="E&lt;sub&gt;11&lt;/sub&gt;&lt;span style=&quot;font-size: 10px;&quot;&gt;&amp;nbsp;(1/2 ; 1/1)&lt;/span&gt;" style="ellipse;whiteSpace=wrap;html=1;aspect=fixed;" vertex="1" parent="1">
          <mxGeometry x="280" y="560" width="80" height="80" as="geometry" />
        </mxCell>
        <mxCell id="KTaPcx_mwvQzee3IW0S4-31" value="E&lt;sub&gt;10&lt;/sub&gt;&lt;span style=&quot;font-size: 10px;&quot;&gt;&amp;nbsp;(1/1 ; 1/1)&lt;/span&gt;" style="ellipse;whiteSpace=wrap;html=1;aspect=fixed;" vertex="1" parent="1">
          <mxGeometry x="400" y="480" width="80" height="80" as="geometry" />
        </mxCell>
        <mxCell id="KTaPcx_mwvQzee3IW0S4-32" value="E&lt;sub&gt;9&lt;/sub&gt;&lt;span style=&quot;font-size: 10px;&quot;&gt;&amp;nbsp;(1/2 ; 1/0)&lt;/span&gt;" style="ellipse;whiteSpace=wrap;html=1;aspect=fixed;" vertex="1" parent="1">
          <mxGeometry x="160" y="480" width="80" height="80" as="geometry" />
        </mxCell>
        <mxCell id="KTaPcx_mwvQzee3IW0S4-33" value="E&lt;sub&gt;8&lt;/sub&gt;&lt;span style=&quot;font-size: 10px;&quot;&gt;&amp;nbsp;(1/0 ; 1/1)&lt;/span&gt;" style="ellipse;whiteSpace=wrap;html=1;aspect=fixed;" vertex="1" parent="1">
          <mxGeometry x="520" y="400" width="80" height="80" as="geometry" />
        </mxCell>
        <mxCell id="KTaPcx_mwvQzee3IW0S4-34" value="" style="endArrow=classic;startArrow=classic;html=1;rounded=0;exitX=0.5;exitY=1;exitDx=0;exitDy=0;entryX=0;entryY=0.5;entryDx=0;entryDy=0;" edge="1" parent="1" source="KTaPcx_mwvQzee3IW0S4-32" target="KTaPcx_mwvQzee3IW0S4-30">
          <mxGeometry width="50" height="50" relative="1" as="geometry">
            <mxPoint x="320" y="480" as="sourcePoint" />
            <mxPoint x="370" y="430" as="targetPoint" />
          </mxGeometry>
        </mxCell>
        <mxCell id="KTaPcx_mwvQzee3IW0S4-35" value="" style="endArrow=classic;startArrow=classic;html=1;rounded=0;entryX=0.5;entryY=1;entryDx=0;entryDy=0;exitX=1;exitY=0.5;exitDx=0;exitDy=0;" edge="1" parent="1" source="KTaPcx_mwvQzee3IW0S4-30" target="KTaPcx_mwvQzee3IW0S4-31">
          <mxGeometry width="50" height="50" relative="1" as="geometry">
            <mxPoint x="400" y="720" as="sourcePoint" />
            <mxPoint x="450" y="760" as="targetPoint" />
          </mxGeometry>
        </mxCell>
        <mxCell id="KTaPcx_mwvQzee3IW0S4-36" value="" style="endArrow=classic;startArrow=classic;html=1;rounded=0;exitX=1;exitY=0.5;exitDx=0;exitDy=0;entryX=0.5;entryY=1;entryDx=0;entryDy=0;" edge="1" parent="1" source="KTaPcx_mwvQzee3IW0S4-32" target="KTaPcx_mwvQzee3IW0S4-29">
          <mxGeometry width="50" height="50" relative="1" as="geometry">
            <mxPoint x="320" y="480" as="sourcePoint" />
            <mxPoint x="370" y="430" as="targetPoint" />
          </mxGeometry>
        </mxCell>
        <mxCell id="KTaPcx_mwvQzee3IW0S4-37" value="" style="endArrow=classic;startArrow=classic;html=1;rounded=0;exitX=0;exitY=0.5;exitDx=0;exitDy=0;entryX=0.5;entryY=1;entryDx=0;entryDy=0;" edge="1" parent="1" source="KTaPcx_mwvQzee3IW0S4-32" target="KTaPcx_mwvQzee3IW0S4-28">
          <mxGeometry width="50" height="50" relative="1" as="geometry">
            <mxPoint x="250" y="530" as="sourcePoint" />
            <mxPoint x="330" y="490" as="targetPoint" />
          </mxGeometry>
        </mxCell>
        <mxCell id="KTaPcx_mwvQzee3IW0S4-38" value="" style="endArrow=classic;startArrow=classic;html=1;rounded=0;exitX=0.5;exitY=0;exitDx=0;exitDy=0;entryX=0.5;entryY=1;entryDx=0;entryDy=0;" edge="1" parent="1" source="KTaPcx_mwvQzee3IW0S4-28" target="KTaPcx_mwvQzee3IW0S4-24">
          <mxGeometry width="50" height="50" relative="1" as="geometry">
            <mxPoint x="260" y="540" as="sourcePoint" />
            <mxPoint x="340" y="500" as="targetPoint" />
          </mxGeometry>
        </mxCell>
        <mxCell id="KTaPcx_mwvQzee3IW0S4-39" value="" style="endArrow=classic;startArrow=classic;html=1;rounded=0;exitX=0.5;exitY=0;exitDx=0;exitDy=0;entryX=1;entryY=0.5;entryDx=0;entryDy=0;" edge="1" parent="1" source="KTaPcx_mwvQzee3IW0S4-29" target="KTaPcx_mwvQzee3IW0S4-24">
          <mxGeometry width="50" height="50" relative="1" as="geometry">
            <mxPoint x="270" y="550" as="sourcePoint" />
            <mxPoint x="350" y="510" as="targetPoint" />
          </mxGeometry>
        </mxCell>
        <mxCell id="KTaPcx_mwvQzee3IW0S4-40" value="" style="endArrow=classic;startArrow=classic;html=1;rounded=0;exitX=0.5;exitY=0;exitDx=0;exitDy=0;entryX=1;entryY=0.5;entryDx=0;entryDy=0;" edge="1" parent="1" source="KTaPcx_mwvQzee3IW0S4-33" target="KTaPcx_mwvQzee3IW0S4-20">
          <mxGeometry width="50" height="50" relative="1" as="geometry">
            <mxPoint x="330" y="410" as="sourcePoint" />
            <mxPoint x="130" y="330" as="targetPoint" />
          </mxGeometry>
        </mxCell>
        <mxCell id="KTaPcx_mwvQzee3IW0S4-41" value="" style="endArrow=classic;startArrow=classic;html=1;rounded=0;entryX=0.5;entryY=1;entryDx=0;entryDy=0;exitX=0.5;exitY=0;exitDx=0;exitDy=0;" edge="1" parent="1" source="KTaPcx_mwvQzee3IW0S4-29" target="KTaPcx_mwvQzee3IW0S4-20">
          <mxGeometry width="50" height="50" relative="1" as="geometry">
            <mxPoint x="330" y="390" as="sourcePoint" />
            <mxPoint x="370" y="430" as="targetPoint" />
          </mxGeometry>
        </mxCell>
        <mxCell id="KTaPcx_mwvQzee3IW0S4-42" value="" style="endArrow=classic;startArrow=classic;html=1;rounded=0;entryX=0.5;entryY=1;entryDx=0;entryDy=0;exitX=0.5;exitY=0;exitDx=0;exitDy=0;" edge="1" parent="1" source="KTaPcx_mwvQzee3IW0S4-33" target="KTaPcx_mwvQzee3IW0S4-26">
          <mxGeometry width="50" height="50" relative="1" as="geometry">
            <mxPoint x="320" y="480" as="sourcePoint" />
            <mxPoint x="370" y="430" as="targetPoint" />
          </mxGeometry>
        </mxCell>
        <mxCell id="KTaPcx_mwvQzee3IW0S4-43" value="" style="endArrow=classic;startArrow=classic;html=1;rounded=0;entryX=0;entryY=0.5;entryDx=0;entryDy=0;" edge="1" parent="1" target="KTaPcx_mwvQzee3IW0S4-31">
          <mxGeometry width="50" height="50" relative="1" as="geometry">
            <mxPoint x="320" y="480" as="sourcePoint" />
            <mxPoint x="370" y="430" as="targetPoint" />
          </mxGeometry>
        </mxCell>
        <mxCell id="KTaPcx_mwvQzee3IW0S4-44" value="" style="endArrow=classic;startArrow=classic;html=1;rounded=0;entryX=0.5;entryY=1;entryDx=0;entryDy=0;exitX=1;exitY=0.5;exitDx=0;exitDy=0;" edge="1" parent="1" source="KTaPcx_mwvQzee3IW0S4-31" target="KTaPcx_mwvQzee3IW0S4-33">
          <mxGeometry width="50" height="50" relative="1" as="geometry">
            <mxPoint x="320" y="480" as="sourcePoint" />
            <mxPoint x="370" y="430" as="targetPoint" />
          </mxGeometry>
        </mxCell>
        <mxCell id="KTaPcx_mwvQzee3IW0S4-51" value="p&lt;sub&gt;1&lt;/sub&gt;" style="text;html=1;align=center;verticalAlign=middle;whiteSpace=wrap;rounded=0;" vertex="1" parent="1">
          <mxGeometry x="220" y="160" width="20" height="20" as="geometry" />
        </mxCell>
        <mxCell id="KTaPcx_mwvQzee3IW0S4-52" value="p&lt;sub&gt;1&lt;/sub&gt;" style="text;html=1;align=center;verticalAlign=middle;whiteSpace=wrap;rounded=0;" vertex="1" parent="1">
          <mxGeometry x="110" y="240" width="20" height="20" as="geometry" />
        </mxCell>
        <mxCell id="KTaPcx_mwvQzee3IW0S4-53" value="p&lt;sub&gt;1&lt;/sub&gt;" style="text;html=1;align=center;verticalAlign=middle;whiteSpace=wrap;rounded=0;" vertex="1" parent="1">
          <mxGeometry x="60" y="370" width="20" height="20" as="geometry" />
        </mxCell>
        <mxCell id="KTaPcx_mwvQzee3IW0S4-54" value="p&lt;sub&gt;1&lt;/sub&gt;" style="text;html=1;align=center;verticalAlign=middle;whiteSpace=wrap;rounded=0;" vertex="1" parent="1">
          <mxGeometry x="350" y="240" width="20" height="20" as="geometry" />
        </mxCell>
        <mxCell id="KTaPcx_mwvQzee3IW0S4-55" value="p&lt;sub&gt;1&lt;/sub&gt;" style="text;html=1;align=center;verticalAlign=middle;whiteSpace=wrap;rounded=0;" vertex="1" parent="1">
          <mxGeometry x="320" y="370" width="20" height="20" as="geometry" />
        </mxCell>
        <mxCell id="KTaPcx_mwvQzee3IW0S4-56" value="p&lt;sub&gt;1&lt;/sub&gt;" style="text;html=1;align=center;verticalAlign=middle;whiteSpace=wrap;rounded=0;" vertex="1" parent="1">
          <mxGeometry x="260" y="480" width="20" height="20" as="geometry" />
        </mxCell>
        <mxCell id="KTaPcx_mwvQzee3IW0S4-57" value="p&lt;sub&gt;1&lt;/sub&gt;" style="text;html=1;align=center;verticalAlign=middle;whiteSpace=wrap;rounded=0;" vertex="1" parent="1">
          <mxGeometry x="570" y="370" width="20" height="20" as="geometry" />
        </mxCell>
        <mxCell id="KTaPcx_mwvQzee3IW0S4-58" value="p&lt;sub&gt;1&lt;/sub&gt;" style="text;html=1;align=center;verticalAlign=middle;whiteSpace=wrap;rounded=0;" vertex="1" parent="1">
          <mxGeometry x="520" y="500" width="20" height="20" as="geometry" />
        </mxCell>
        <mxCell id="KTaPcx_mwvQzee3IW0S4-59" value="p&lt;sub&gt;1&lt;/sub&gt;" style="text;html=1;align=center;verticalAlign=middle;whiteSpace=wrap;rounded=0;" vertex="1" parent="1">
          <mxGeometry x="380" y="560" width="20" height="20" as="geometry" />
        </mxCell>
        <mxCell id="KTaPcx_mwvQzee3IW0S4-60" value="p&lt;sub&gt;2&lt;/sub&gt;" style="text;html=1;align=center;verticalAlign=middle;whiteSpace=wrap;rounded=0;" vertex="1" parent="1">
          <mxGeometry x="394" y="160" width="20" height="20" as="geometry" />
        </mxCell>
        <mxCell id="KTaPcx_mwvQzee3IW0S4-61" value="p&lt;sub&gt;2&lt;/sub&gt;" style="text;html=1;align=center;verticalAlign=middle;whiteSpace=wrap;rounded=0;" vertex="1" parent="1">
          <mxGeometry x="280" y="240" width="20" height="20" as="geometry" />
        </mxCell>
        <mxCell id="KTaPcx_mwvQzee3IW0S4-62" value="p&lt;sub&gt;2&lt;/sub&gt;" style="text;html=1;align=center;verticalAlign=middle;whiteSpace=wrap;rounded=0;" vertex="1" parent="1">
          <mxGeometry x="520" y="240" width="20" height="20" as="geometry" />
        </mxCell>
        <mxCell id="KTaPcx_mwvQzee3IW0S4-63" value="p&lt;sub&gt;2&lt;/sub&gt;" style="text;html=1;align=center;verticalAlign=middle;whiteSpace=wrap;rounded=0;" vertex="1" parent="1">
          <mxGeometry x="450" y="330" width="20" height="20" as="geometry" />
        </mxCell>
        <mxCell id="KTaPcx_mwvQzee3IW0S4-64" value="p&lt;sub&gt;2&lt;/sub&gt;" style="text;html=1;align=center;verticalAlign=middle;whiteSpace=wrap;rounded=0;" vertex="1" parent="1">
          <mxGeometry x="210" y="340" width="20" height="20" as="geometry" />
        </mxCell>
        <mxCell id="KTaPcx_mwvQzee3IW0S4-65" value="p&lt;sub&gt;2&lt;/sub&gt;" style="text;html=1;align=center;verticalAlign=middle;whiteSpace=wrap;rounded=0;" vertex="1" parent="1">
          <mxGeometry x="360" y="480" width="20" height="20" as="geometry" />
        </mxCell>
        <mxCell id="KTaPcx_mwvQzee3IW0S4-66" value="p&lt;sub&gt;2&lt;/sub&gt;" style="text;html=1;align=center;verticalAlign=middle;whiteSpace=wrap;rounded=0;" vertex="1" parent="1">
          <mxGeometry x="120" y="480" width="20" height="20" as="geometry" />
        </mxCell>
        <mxCell id="KTaPcx_mwvQzee3IW0S4-67" value="p&lt;sub&gt;2&lt;/sub&gt;" style="text;html=1;align=center;verticalAlign=middle;whiteSpace=wrap;rounded=0;" vertex="1" parent="1">
          <mxGeometry x="240" y="560" width="20" height="20" as="geometry" />
        </mxCell>
      </root>
    </mxGraphModel>
  </diagram>
</mxfile>
